# xmcd
#
# Track frame offsets:
#	150
#	23875
#	44842
#	56137
#	76205
#	100715
#	120310
#	145472
#	162540
#	180305
#	201660
#
# Disc length: 2956 seconds
#
# Revision: 1
# Processed by: cddbd v1.5PL3 Copyright (c) Steve Scherf et al.
# Submitted via: CDex 1.50Beta5
#
DISCID=9b0b8a0b
DTITLE=しあわせクロワッサン - しあわせさん
DYEAR=1999
DGENRE=Pop
TTITLE0=しあわせのクロワッサン
TTITLE1=海の香りのキャンドル
TTITLE2=しあわせトーク
TTITLE3=Sha la la la…
TTITLE4=Lu・puty La・puty
TTITLE5=キクマリ歌劇団 月組 特別公演「しあわせパン屋さん」
TTITLE6=キラ・キラ・キラリ
TTITLE7=夢見る手紙
TTITLE8=…letters
TTITLE9=君とじゃなくちゃ
TTITLE10=Cry for the moon
EXTD=
EXTT0=
EXTT1=
EXTT2=
EXTT3=
EXTT4=
EXTT5=
EXTT6=
EXTT7=
EXTT8=
EXTT9=
EXTT10=
PLAYORDER=
